<svg width="1440" height="515" viewBox="0 0 1440 515" fill="none" xmlns="http://www.w3.org/2000/svg">
<g clip-path="url(#clip0_106_1048)">
<path d="M706.161 11.0525C702.261 11.5598 699.575 12.4572 697.405 13.9791C696.011 14.9352 694.9 16.2814 694.125 17.8618C693.118 19.969 692.653 28.222 692.369 48.9817C692.266 55.3618 692.085 61.02 691.93 61.5663C691.801 62.093 691.568 67.322 691.439 73.1753C690.819 99.3785 690.406 115.377 690.122 122.05C689.967 126.011 689.735 133.737 689.631 139.22C689.528 144.683 689.321 151.063 689.166 153.365C689.011 155.667 688.882 158.145 688.882 158.867L688.856 160.174L686.739 160.935C685.551 161.365 684.517 161.638 684.414 161.579C684.337 161.521 684.362 154.399 684.466 145.756C684.672 131.396 684.724 120.001 684.621 111.612C684.621 109.836 684.698 100.042 684.802 89.8376L685.034 71.2827L684.207 70.6779C683.562 70.1901 683.174 70.0536 682.374 70.0536C681.108 70.0536 680.876 70.1511 678.06 71.7705C665.043 79.2627 654.583 86.6768 648.669 92.5887C647.222 94.052 641.592 100.588 641.592 100.803C641.592 100.861 641.385 101.154 641.127 101.427C640.843 101.72 640.3 102.442 639.861 103.027C639.422 103.612 638.802 104.451 638.493 104.881C637.666 105.954 633.818 111.709 633.224 112.782C632.604 113.895 631.287 116.216 630.873 116.977C630.305 117.953 629.401 119.865 629.272 120.392C629.195 120.665 629.04 120.958 628.936 121.075C628.859 121.172 628.626 121.66 628.42 122.148C628.239 122.635 627.903 123.513 627.645 124.099C627.387 124.684 627.051 125.562 626.87 126.05C626.689 126.538 626.457 127.123 626.328 127.377C626.199 127.63 626.095 128.021 626.095 128.255C626.095 128.489 625.914 129.074 625.682 129.562C625.45 130.05 625.165 130.83 625.062 131.318C624.933 131.806 624.701 132.586 624.546 133.074C624.391 133.562 624.158 134.479 624.029 135.122C623.874 135.766 623.667 136.722 623.512 137.269C623.358 137.795 623.125 138.849 622.97 139.61C622.815 140.351 622.583 141.503 622.454 142.146C622.324 142.79 622.04 144.761 621.808 146.536C621.601 148.312 621.317 150.283 621.188 150.926C620.852 152.507 620.697 158.165 620.516 172.583C620.258 194.728 619.793 209.401 619.096 216.678C618.967 218.181 618.734 223.097 618.579 227.604C618.424 232.111 618.218 237.984 618.089 240.677C617.701 248.715 617.572 251.291 617.314 258.236C617.159 261.885 616.875 267.582 616.668 270.919C616.462 274.235 616.177 279.991 616.022 283.698C615.738 291.015 615.609 294.117 615.248 301.551C615.119 304.224 614.912 309.667 614.783 313.647C614.628 317.608 614.395 322.935 614.215 325.452C613.724 332.885 613.466 337.997 613.181 345.158C612.846 354.113 612.717 357.176 612.432 363.108C612.303 365.839 612.071 371.244 611.916 375.107C611.787 378.97 611.528 384.238 611.374 386.813C610.883 394.559 610.625 399.515 610.34 406.91C610.211 410.773 610.03 415.299 609.953 416.958C609.488 426.538 609.307 430.635 609.075 436.957C608.92 440.82 608.739 445.132 608.636 446.556L608.481 449.131L594.895 449.034C587.405 448.975 580.096 448.839 578.624 448.741C575.215 448.488 574.75 448.663 573.433 450.614C572.245 452.39 570.798 453.853 569.455 454.692C568.241 455.414 565.891 456.37 565.271 456.37C565.065 456.37 564.677 456.448 564.419 456.565C563.928 456.78 561.578 457.287 557.781 458.009C556.361 458.263 554.449 458.633 553.52 458.809C552.59 459.004 551.324 459.219 550.679 459.297C550.033 459.394 549 459.57 548.354 459.667C547.708 459.784 546.624 459.96 545.9 460.077C545.203 460.175 543.808 460.389 542.801 460.545C541.82 460.721 540.916 460.857 540.812 460.857C540.709 460.857 539.986 461.267 539.211 461.774C538.436 462.301 536.086 463.569 533.994 464.604C522.423 470.281 510 476.525 510 476.622C510 476.7 510.232 476.778 510.517 476.817C510.956 476.856 511.033 477.013 511.033 477.852C511.033 478.69 511.136 478.905 511.73 479.295C512.402 479.744 512.454 479.744 522.836 479.861C528.57 479.939 618.502 480.642 722.691 481.442C826.879 482.241 915.313 482.924 919.187 482.963C926.032 483.041 926.29 483.022 927.039 482.632C928.072 482.105 928.744 481.402 928.95 480.661C929.26 479.412 928.511 478.944 915.107 472.096C912.756 470.886 906.687 467.764 901.625 465.15C896.562 462.516 891.888 460.175 891.268 459.921C890.467 459.609 889.537 459.453 887.962 459.375C886.774 459.316 885.379 459.199 884.888 459.101C884.398 459.004 883.287 458.789 882.435 458.633C881.582 458.477 880.007 458.165 878.948 457.95C877.889 457.736 876.313 457.424 875.461 457.248C871.819 456.526 866.447 455.043 862.341 453.658C860.068 452.897 859.371 452.799 858.105 453.073C857.201 453.248 854.205 453.287 844.933 453.19C838.321 453.131 832.897 453.053 832.871 453.014C832.82 452.975 832.536 445.971 832.226 437.444C831.554 418.733 831.503 417.621 831.167 410.305C831.038 407.144 830.908 402.442 830.908 399.866C830.908 397.31 830.779 394.715 830.624 394.13C830.495 393.545 830.263 388.843 830.108 383.692C829.953 378.541 829.772 372.961 829.72 371.302C829.669 369.644 829.488 364.103 829.359 359.01C829.23 353.918 828.997 349.372 828.842 348.923C828.713 348.475 828.584 345.762 828.558 342.875C828.558 340.007 828.429 335.851 828.3 333.646C828.145 331.441 827.99 327.578 827.938 325.061C827.861 322.544 827.68 318.369 827.551 315.794C827.396 313.218 827.293 310.623 827.293 310.038C827.318 308.243 826.001 279.542 825.459 270.236C825.201 265.455 824.917 260.109 824.839 258.334C824.762 256.559 824.581 253.671 824.426 251.895C824.271 250.12 824.064 247.057 823.935 245.067C823.832 243.076 823.625 240.306 823.47 238.921C823.315 237.516 823.134 235.331 823.057 234.043C822.979 232.755 822.618 228.97 822.23 225.653C821.869 222.317 821.481 218.59 821.352 217.361C820.887 212.191 820.035 205.108 819.803 204.328C819.648 203.879 819.544 202.708 819.544 201.752C819.544 200.796 819.415 199.411 819.26 198.689C819.028 197.557 818.201 188.563 817.866 183.705C817.762 182.28 817.556 180.29 817.349 178.534C816.832 174.359 816.677 173.169 816.419 171.998C816.264 171.237 816.058 170.106 815.954 169.462C815.696 168.037 814.689 164.174 814.405 163.511C814.276 163.238 814.017 162.516 813.836 161.891C813.656 161.267 813.423 160.721 813.294 160.662C813.191 160.604 813.087 160.311 813.087 160.018C813.087 159.726 812.984 159.414 812.881 159.297C812.752 159.199 812.493 158.731 812.313 158.243C811.538 156.35 809.549 153.248 807.741 151.141C807.095 150.4 805.055 148.234 803.195 146.361C801.336 144.468 797.642 140.429 794.982 137.366C792.322 134.303 788.525 129.952 786.588 127.708C781.784 122.187 765.203 103.339 765.048 103.222C764.971 103.164 763.731 101.759 762.259 100.081C758.927 96.2762 758.539 95.964 756.654 95.847C755.621 95.7884 755.079 95.847 754.588 96.0811C753.116 96.8225 753.193 95.9055 753.141 113.368C753.116 122.226 753.09 133.367 753.116 138.147C753.167 146.731 752.986 153.17 752.677 153.17C752.341 153.17 750.817 152.37 750.714 152.136C750.662 152.019 750.481 143.259 750.326 132.684C750.068 113.953 749.758 94.7934 749.293 67.4196C749.164 60.0054 749.061 51.4011 749.061 48.2988C749.061 42.387 749.009 42.0163 747.795 39.4214C745.393 34.329 739.401 26.8759 734.081 22.3493C730.413 19.2471 724.447 15.4424 720.754 13.862C720.185 13.6084 719.23 13.2182 718.662 12.9645C717.344 12.4182 715.252 11.7744 713.522 11.4037C712.23 11.111 707.375 10.8964 706.161 11.0525ZM711.972 15.6961C712.747 15.8522 713.651 16.1058 714.477 16.418C714.736 16.5155 715.123 16.5936 715.33 16.5936C715.536 16.5936 715.717 16.6716 715.717 16.7887C715.717 16.8863 715.846 16.9838 716.001 16.9838C716.156 16.9838 716.776 17.2374 717.396 17.5691C718.016 17.8813 718.584 18.1544 718.662 18.1544C718.739 18.1544 719.023 18.2715 719.256 18.4276C719.514 18.5837 720.469 19.13 721.399 19.6568C724.809 21.5493 729.742 25.2174 732.118 27.6173C732.944 28.4758 733.745 29.1976 733.848 29.2367C733.952 29.2757 734.055 29.4513 734.055 29.6073C734.055 29.8415 733.926 29.8025 733.512 29.4513C732.092 28.2026 730.723 27.1685 729.664 26.5441C729.018 26.1734 728.321 25.7247 728.114 25.5491C727.908 25.393 726.797 24.7686 725.661 24.2028C724.524 23.637 723.543 23.1102 723.465 23.0322C723.388 22.9737 722.923 22.7005 722.432 22.4469C721.942 22.1932 721.348 21.842 721.141 21.6664C720.469 21.1591 717.706 19.7739 716.363 19.3056C714.452 18.6227 711.249 18.6422 709.209 19.3837C706.187 20.4763 703.372 22.4663 702.106 24.3979C700.789 26.4271 700.711 28.1245 701.77 30.3488C701.874 30.5634 702.184 31.2658 702.442 31.8901C703.217 33.7632 708.925 42.1139 709.57 42.309C709.674 42.348 709.777 42.4651 709.777 42.5627C709.777 42.8553 711.714 44.982 713.393 46.5429C715.072 48.1038 718.739 50.7377 719.23 50.7377C719.307 50.7377 719.85 50.9914 720.444 51.284C721.477 51.7913 722.975 52.3766 724.576 52.8644C725.48 53.1376 731.472 53.157 731.472 52.8839C731.472 52.7668 731.653 52.6888 731.859 52.6888C732.221 52.6888 736.302 49.7622 737.154 48.8842C738.73 47.2648 740.021 45.4503 740.899 43.6162C741.002 43.4016 741.183 42.348 741.261 41.2749L741.416 39.3238L741.906 40.2993C742.165 40.8261 742.5 41.4895 742.681 41.7431C743.043 42.3675 742.991 47.0892 742.604 47.1867C742.449 47.2257 742.32 47.3623 742.32 47.4989C742.32 47.8501 741.7 48.7866 741.493 48.7866C741.364 48.7866 741.287 48.8842 741.287 49.0012C741.287 49.2354 739.737 51.0108 739.427 51.0889C739.324 51.1279 739.22 51.284 739.22 51.4206C739.22 51.9864 735.269 54.7765 733.538 55.4203C731.963 56.0252 731.756 56.0446 729.664 55.9666C728.45 55.9081 727.21 55.7715 726.952 55.6544C726.668 55.5374 725.842 55.2252 725.093 54.9521C724.008 54.5618 721.218 53.157 720.624 52.6888C720.547 52.6302 719.746 52.1035 718.842 51.5182C714.787 48.9037 711.533 46.3672 705.748 41.3334C705.412 41.0408 705.128 40.7286 705.128 40.6506C705.128 40.553 704.844 40.2408 704.482 39.9286C704.121 39.6165 703.836 39.2848 703.836 39.2068C703.836 39.1287 703.682 38.9336 703.527 38.797C702.984 38.3873 701.719 36.3191 700.995 34.7387C700.815 34.368 700.582 33.8802 700.479 33.6656C700.35 33.451 700.195 32.9632 700.117 32.5925C700.066 32.2218 699.833 31.2073 699.627 30.3488C699.058 28.0465 698.878 24.2614 699.213 21.725C699.394 20.5153 699.627 19.5202 699.73 19.5202C699.859 19.5202 699.962 19.3446 699.962 19.1105C699.962 17.9398 702.545 16.3009 705.386 15.6961C706.574 15.4424 710.526 15.4424 711.972 15.6961ZM735.01 30.8756C734.933 31.0317 734.855 30.9731 734.855 30.7585C734.83 30.5439 734.907 30.4268 734.985 30.5049C735.062 30.5634 735.088 30.739 735.01 30.8756ZM738.91 34.9144C739.35 35.5582 739.737 36.163 739.737 36.2801C739.737 36.7679 739.246 36.4362 738.549 35.4802C737.516 34.0559 737.361 33.7632 737.748 33.7632C737.929 33.7632 738.446 34.29 738.91 34.9144ZM702.39 45.3527C707.091 49.6256 714.813 55.2252 719.152 57.5275C721.193 58.6201 724.989 59.9859 726.849 60.2981C729.096 60.6883 733.332 60.4737 735.088 59.9078C737.361 59.1664 740.047 57.7031 741.751 56.2788L743.301 54.9716L743.43 59.1469C743.585 64.6685 743.74 71.7705 743.947 84.6867C744.05 90.54 744.179 97.7785 744.231 100.783C744.283 103.788 744.412 111.026 744.515 116.88C744.618 122.733 744.747 129.972 744.825 132.976C744.877 135.981 744.954 141.503 745.006 145.268C745.032 149.014 745.212 158.458 745.367 166.242C745.548 174.027 745.729 184.017 745.781 188.446L745.884 196.523L745.187 196.426C744.825 196.367 743.947 196.211 743.224 196.094C742.526 195.977 741.287 195.801 740.512 195.704C739.737 195.606 738.575 195.431 737.929 195.314C737.283 195.197 736.069 195.021 735.217 194.923C734.365 194.806 733.099 194.631 732.376 194.514C731.679 194.416 730.336 194.241 729.406 194.124C728.476 194.026 726.978 193.85 726.048 193.753C723.905 193.499 720.495 193.207 719.359 193.187L718.507 193.168L718.662 190.67C718.739 189.304 718.868 186.983 718.971 185.5C719.514 176.798 716.182 168.486 710.293 163.901C708.356 162.399 704.792 160.467 703.578 160.272C703.217 160.214 702.7 160.096 702.416 159.999C701.202 159.628 699.678 159.414 697.276 159.297L694.719 159.16L694.874 152.799C694.978 149.307 695.107 141.834 695.184 136.196C695.262 130.557 695.442 124.587 695.597 122.928C695.752 121.27 695.985 115.377 696.114 109.856C696.243 104.334 696.45 96.6469 696.579 92.7838C696.708 88.9206 696.941 79.1261 697.121 71.0291C697.276 62.932 697.509 55.83 697.664 55.2447C697.793 54.6594 697.896 51.3425 697.896 47.8891C697.896 44.4357 697.974 41.47 698.051 41.2944C698.154 41.0603 698.568 41.392 699.523 42.4456C700.246 43.265 701.538 44.5527 702.39 45.3527ZM679.249 88.2573C679.171 94.7349 679.223 100.217 679.326 100.432C679.429 100.666 679.429 107.866 679.3 116.431C679.171 124.996 678.99 139.317 678.913 148.273L678.784 164.525L675.865 166.711C674.264 167.901 672.637 169.169 672.249 169.501C671.449 170.242 671.01 170.281 668.788 169.852C667.962 169.696 666.593 169.481 665.741 169.384C664.888 169.267 663.545 169.091 662.771 168.974C661.996 168.857 660.601 168.681 659.671 168.564C658.741 168.467 657.347 168.291 656.572 168.193C654.377 167.901 650.296 167.589 646.99 167.452L643.994 167.316L642.987 166.438C641.359 165.013 639.681 162.926 637.821 159.999C635.057 155.628 635.342 155.785 634.076 157.911L633.508 158.867L633.146 158.204C632.836 157.697 632.785 156.799 632.862 153.911C632.965 150.887 632.914 150.282 632.63 150.458C632.449 150.595 632.294 150.751 632.294 150.848C632.294 150.946 631.958 151.59 631.519 152.292C631.106 152.994 630.744 153.599 630.744 153.638C630.744 153.833 628.575 156.604 628.316 156.721C627.748 157.014 627.361 156.877 626.973 156.233C626.612 155.667 626.612 155.121 626.844 151.609C627.077 148.058 627.283 146.595 627.748 144.488C627.826 144.156 628.007 143.063 628.161 142.049C628.316 141.034 628.549 139.883 628.678 139.512C628.807 139.142 629.091 137.991 629.324 136.976C630.718 130.752 632.965 124.645 636.246 118.343C638.157 114.656 642.754 107.593 645.389 104.295C652.724 95.1251 654.092 93.7593 661.479 88.1987C665.25 85.3501 666.18 84.7062 669.744 82.3259C672.404 80.5894 679.016 76.4921 679.223 76.4921C679.3 76.4921 679.326 81.7796 679.249 88.2573ZM771.453 118.148C775.25 122.44 778.401 126.05 778.478 126.147C778.556 126.265 780.106 128.06 781.939 130.147C787.905 136.937 788.293 137.386 788.293 137.503C788.293 137.581 788.474 137.796 788.732 137.991C788.964 138.186 789.274 138.517 789.429 138.732C790.075 139.61 793.613 143.727 794.698 144.839C795.344 145.502 797.178 147.375 798.779 148.975C802.808 153.053 805.029 155.785 806.398 158.38C806.527 158.633 806.734 159.023 806.863 159.258C807.354 160.155 808.619 163.394 808.955 164.584C809.084 165.013 809.317 165.755 809.472 166.242C809.652 166.73 809.859 167.647 809.988 168.291C810.117 168.935 810.324 169.949 810.479 170.535C810.892 172.174 811.589 176.798 811.796 179.412C811.925 180.7 812.183 183.549 812.416 185.734C812.623 187.919 812.752 189.792 812.674 189.87C812.545 190.026 811.434 189.773 809.601 189.168C808.361 188.758 805.778 188.056 805.081 187.958C804.719 187.9 804.332 187.782 804.177 187.704C804.048 187.646 803.402 187.47 802.756 187.314C802.111 187.178 800.948 186.904 800.174 186.729C799.399 186.534 798.237 186.28 797.591 186.144C796.945 186.007 796.17 185.831 795.835 185.734C795.499 185.636 794.982 185.558 794.698 185.558C794.388 185.558 793.794 185.48 793.355 185.383C791.289 184.914 789.688 184.778 786.356 184.758C783.437 184.758 782.068 184.856 779.331 185.266L775.896 185.773L774.708 185.129C772.796 184.095 770.343 181.773 769.051 179.822C768.406 178.788 767.863 178.164 767.786 178.339C767.734 178.495 767.605 179.217 767.527 179.959C767.295 182.163 767.037 182.202 765.849 180.271C765.255 179.334 764.79 178.456 764.79 178.32C764.79 178.164 764.609 177.676 764.402 177.227C763.86 176.017 763.24 173.676 763.24 172.74C763.24 172.291 763.111 171.686 762.956 171.374C762.672 170.847 762.62 170.925 761.974 172.681C760.838 175.686 760.425 175.998 759.366 174.593C758.798 173.832 758.746 173.539 758.694 170.632C758.694 168.915 758.565 167.003 758.462 166.379C758.333 165.677 758.41 164.116 758.669 162.184C759.185 158.438 759.34 156.702 759.185 157.014C759.108 157.15 758.953 157.267 758.798 157.267C758.617 157.267 758.539 154.009 758.539 147.453C758.539 142.068 758.539 136.566 758.514 135.22C758.436 130.576 758.669 104.49 758.798 104.237C758.927 103.983 760.373 105.563 771.453 118.148ZM700.221 164.311C702.752 164.974 704.431 165.813 706.29 167.433C707.685 168.623 709.389 170.827 710.319 172.622C710.448 172.876 710.655 173.266 710.784 173.5C710.913 173.754 711.094 174.164 711.197 174.437C711.275 174.71 711.481 175.237 711.611 175.608C711.972 176.622 712.876 181.617 712.85 182.417L712.825 183.119L712.618 182.436C712.515 182.066 712.282 181.11 712.101 180.329C711.921 179.549 711.662 178.866 711.533 178.807C711.43 178.749 711.326 178.554 711.326 178.339C711.326 177.968 710.784 177.051 709.415 175.12C707.762 172.798 703.191 168.935 701.305 168.252C700.195 167.842 696.527 167.764 695.52 168.135C695.21 168.252 694.384 168.467 693.712 168.603C693.015 168.759 692.472 168.935 692.472 169.013C692.472 169.091 692.24 169.169 691.982 169.169C691.697 169.169 691.052 169.345 690.484 169.559C689.941 169.754 688.443 170.32 687.152 170.808C682.761 172.408 678.577 174.847 676.175 177.208C675.684 177.656 675.116 178.183 674.884 178.339C674.29 178.768 671.449 182.027 671.01 182.768C670.803 183.119 670.57 183.412 670.467 183.412C670.338 183.412 670.261 183.51 670.261 183.627C670.261 183.724 669.899 184.407 669.46 185.129C668.401 186.865 668.272 187.08 667.91 187.997C667.755 188.426 667.523 188.914 667.42 189.07C667.316 189.226 667.084 189.968 666.903 190.729C666.722 191.47 666.49 192.27 666.386 192.485C665.999 193.246 665.612 195.255 665.612 196.445C665.612 197.089 665.508 197.694 665.353 197.753C664.94 197.948 665.043 205.011 665.482 207.391C665.715 208.523 665.999 209.674 666.102 209.947C666.231 210.22 666.49 210.844 666.671 211.352C666.851 211.878 667.11 212.288 667.213 212.288C667.316 212.288 667.42 212.405 667.42 212.522C667.394 213.478 670.984 216.971 671.965 216.971C672.172 216.971 672.327 217.049 672.327 217.127C672.327 217.224 672.817 217.42 673.437 217.556C674.031 217.712 674.651 217.907 674.832 218.005C675.271 218.239 681.651 218.512 682.193 218.317C682.425 218.22 682.968 218.141 683.407 218.141C683.82 218.141 684.259 218.044 684.337 217.946C684.414 217.829 684.776 217.751 685.137 217.751C686.48 217.751 690.819 215.8 694.022 213.771C695.778 212.639 699.782 209.479 701.28 208.015C702.132 207.196 702.907 206.435 703.036 206.318C703.139 206.22 703.397 205.908 703.578 205.635C703.759 205.381 703.991 205.128 704.069 205.069C704.456 204.835 706.936 201.186 706.936 200.855C706.936 200.699 707.065 200.582 707.194 200.582C707.349 200.582 707.452 200.406 707.452 200.211C707.452 199.996 707.581 199.762 707.711 199.704C707.866 199.645 707.969 199.372 707.969 199.099C707.969 198.845 708.098 198.631 708.227 198.631C708.382 198.631 708.485 198.455 708.485 198.26C708.485 198.045 708.615 197.811 708.744 197.753C708.899 197.694 709.002 197.44 709.002 197.187C709.002 196.953 709.079 196.679 709.183 196.601C709.467 196.387 710.035 195.06 710.035 194.572C710.035 194.338 710.164 194.143 710.293 194.143C710.448 194.143 710.552 193.928 710.552 193.675C710.552 193.402 710.681 193.128 710.81 193.07C710.965 193.011 711.068 192.699 711.068 192.387C711.068 192.075 711.197 191.763 711.326 191.704C711.481 191.646 711.585 191.372 711.585 191.119C711.585 190.865 711.714 190.592 711.843 190.534C711.998 190.475 712.101 189.929 712.101 189.343C712.101 188.758 712.205 188.29 712.36 188.29C712.489 188.29 712.644 187.47 712.695 186.475C712.747 185.344 712.773 185.422 712.721 186.729C712.644 188.836 712.566 189.558 712.075 191.899C711.559 194.358 709.751 199.782 709.079 200.816C708.899 201.108 708.744 201.479 708.744 201.655C708.744 201.928 708.021 203.294 707.427 204.133C707.297 204.328 707.194 204.601 707.194 204.737C707.194 204.874 706.626 205.889 705.903 206.981C705.205 208.074 704.611 209.049 704.611 209.147C704.611 209.225 704.379 209.459 704.095 209.654C703.811 209.849 703.578 210.122 703.578 210.259C703.578 210.396 703.501 210.532 703.397 210.571C703.268 210.591 702.907 211.039 702.571 211.547C702.235 212.074 701.848 212.483 701.719 212.483C701.615 212.483 701.512 212.62 701.512 212.776C701.512 212.932 701.409 213.069 701.254 213.069C701.125 213.069 700.995 213.147 700.995 213.264C700.995 213.556 698.723 215.8 696.682 217.556C692.679 220.99 688.521 223.292 683.304 224.99C682.348 225.302 677.802 225.751 676.821 225.634C672.198 225.107 669.176 223.644 666.412 220.619C661.712 215.449 660.214 206.63 662.409 196.875C662.771 195.216 663.365 193.207 663.778 192.094C664.578 189.968 665.198 188.563 665.405 188.387C665.508 188.29 665.612 188.056 665.612 187.86C665.612 187.665 665.973 186.944 666.386 186.241C666.825 185.539 667.161 184.875 667.161 184.758C667.161 184.661 667.394 184.192 667.678 183.763C667.962 183.314 668.194 182.827 668.194 182.69C668.194 182.554 668.298 182.436 668.401 182.436C668.504 182.436 668.763 182.105 668.943 181.695C669.15 181.305 669.537 180.72 669.847 180.407C670.131 180.076 670.803 179.276 671.294 178.612C673.437 175.764 677.26 171.998 679.894 170.145C680.747 169.559 681.676 168.896 681.986 168.681C683.019 167.959 684.698 167.023 684.956 167.023C685.086 167.023 685.241 166.945 685.292 166.867C685.447 166.574 689.192 165.111 690.923 164.662C691.852 164.428 693.118 164.155 693.764 164.077C695.288 163.882 699.084 164.018 700.221 164.311ZM651.535 170.496C652.827 170.593 654.609 170.788 655.539 170.925C656.469 171.042 658.199 171.276 659.413 171.432C664.708 172.076 666.877 172.388 667.058 172.525C667.161 172.622 667.523 172.681 667.859 172.681C668.582 172.681 668.633 172.954 667.936 173.325C667.394 173.618 665.25 173.579 664.708 173.266C664.578 173.188 663.235 173.032 661.737 172.896C660.239 172.759 658.741 172.603 658.38 172.564C658.018 172.505 656.985 172.388 656.055 172.291C655.126 172.213 654.196 172.096 653.989 172.037C653.783 171.979 651.639 171.881 649.211 171.823C645.053 171.725 641.308 171.92 640.171 172.291C639.887 172.369 638.957 172.564 638.105 172.701C637.253 172.837 636.452 173.013 636.323 173.11C636.168 173.188 635.755 173.266 635.393 173.266C635.032 173.266 634.618 173.344 634.489 173.422C634.334 173.52 633.714 173.696 633.069 173.852C631.545 174.183 628.549 174.983 627.258 175.413L626.224 175.764L626.147 175.276C626.069 174.808 626.483 174.242 626.922 174.242C627.051 174.242 627.929 173.969 628.885 173.637C629.84 173.305 630.848 172.974 631.132 172.876C631.648 172.74 632.475 172.486 633.663 172.115C634.851 171.725 638.312 170.925 638.725 170.925C638.983 170.925 639.267 170.867 639.371 170.769C640.12 170.203 646.499 170.067 651.535 170.496ZM655.281 174.983C656.21 175.1 658.302 175.315 659.929 175.491C663.52 175.881 665.379 176.212 665.534 176.486C665.586 176.603 664.501 178.437 663.158 180.563C661.789 182.69 660.446 184.875 660.188 185.441C659.284 187.412 658.431 189.382 658.122 190.241C657.941 190.729 657.708 191.333 657.579 191.607C657.166 192.563 656.055 197.031 655.668 199.509C655.41 201.069 655.255 203.333 655.281 205.362C655.332 209.888 655.332 210.122 655.151 212.678C655.074 213.908 654.867 217.459 654.738 220.58C654.583 223.683 654.377 228.034 654.247 230.238C654.118 232.443 653.886 237.477 653.705 241.457C653.55 245.418 653.395 248.696 653.369 248.715C653.343 248.754 649.366 248.774 644.562 248.793L635.806 248.832L634.567 247.779C632.965 246.432 631.157 243.642 630.589 241.652C630.357 240.794 630.073 239.818 629.969 239.506C629.84 239.018 629.737 239.233 629.375 240.696C629.143 241.691 628.936 242.686 628.936 242.94C628.91 243.369 628.91 243.369 628.652 243.057C628.497 242.842 628.291 241.633 628.161 240.364C628.058 239.077 627.903 237.984 627.852 237.926C627.593 237.75 627.128 239.038 627.128 239.877C627.128 240.325 627.025 240.794 626.896 240.95C626.663 241.203 626.56 241.008 625.966 239.408C625.863 239.135 625.708 237.34 625.605 235.409L625.45 231.897L624.985 232.97C624.726 233.555 624.339 234.297 624.132 234.628C623.771 235.194 623.745 235.194 623.9 234.14C624.107 232.619 624.468 224.756 624.778 214.922C624.933 210.298 625.165 205.128 625.32 203.411C625.475 201.694 625.656 195.626 625.734 189.948C625.811 184.251 625.914 179.412 625.992 179.178C626.069 178.866 626.483 178.651 627.593 178.339C628.394 178.125 629.298 177.851 629.582 177.754C629.866 177.656 630.563 177.481 631.132 177.344C631.7 177.208 632.268 177.012 632.423 176.934C632.552 176.856 632.862 176.778 633.12 176.778C633.379 176.778 633.792 176.7 634.05 176.603C634.748 176.31 637.898 175.608 640.249 175.217C641.437 175.022 642.496 174.808 642.573 174.73C642.806 174.554 653.266 174.769 655.281 174.983ZM790.411 187.685C790.746 187.782 791.702 187.978 792.554 188.095C795.964 188.621 804.358 190.612 807.793 191.724C808.232 191.86 809.084 192.114 809.73 192.289C811.977 192.914 812.571 193.089 812.674 193.187C812.726 193.226 812.855 193.87 812.958 194.611C813.087 195.704 813.062 195.919 812.777 195.762C812.597 195.665 811.925 195.45 811.279 195.314C810.634 195.177 810.014 195.002 809.859 194.923C809.73 194.845 809.084 194.689 808.438 194.553C807.793 194.416 807.044 194.221 806.76 194.124C805.133 193.616 799.295 192.289 796.093 191.704C788.887 190.377 785.323 190.241 780.028 191.021C779.253 191.138 778.22 191.275 777.755 191.353C777.29 191.411 776.851 191.529 776.774 191.626C776.696 191.724 776.335 191.802 775.973 191.802C775.379 191.802 771.505 192.602 770.343 192.972C770.059 193.07 769.361 193.246 768.793 193.382C768.225 193.519 767.657 193.714 767.527 193.792C767.372 193.87 767.114 193.948 766.933 193.948C766.727 193.948 766.081 194.124 765.513 194.338C764.919 194.553 764.247 194.728 764.015 194.728C763.782 194.728 763.498 194.806 763.369 194.904C763.137 195.041 758.979 196.289 758.694 196.289C758.643 196.289 758.591 195.548 758.591 194.65C758.591 193.577 758.694 192.953 758.927 192.836C759.082 192.738 760.218 192.407 761.432 192.114C762.646 191.821 763.86 191.49 764.144 191.411C764.428 191.314 765.125 191.138 765.694 191.021C766.262 190.904 766.959 190.729 767.243 190.631C767.527 190.553 768.276 190.358 768.922 190.221C769.568 190.085 770.214 189.909 770.343 189.831C770.498 189.773 770.963 189.656 771.376 189.597C771.815 189.538 772.615 189.382 773.184 189.265C773.752 189.148 774.863 188.953 775.637 188.836C776.412 188.719 777.187 188.563 777.316 188.485C777.471 188.407 778.556 188.231 779.77 188.095C780.984 187.958 782.068 187.763 782.223 187.665C782.533 187.451 789.662 187.47 790.411 187.685ZM789.068 193.577C792.839 194.006 793.639 194.124 794.621 194.338C795.189 194.455 796.067 194.631 796.558 194.728C797.048 194.826 797.875 194.982 798.366 195.099C798.856 195.197 799.683 195.372 800.174 195.489C800.664 195.587 801.491 195.782 801.982 195.899C802.472 196.016 803.247 196.192 803.66 196.289C804.461 196.445 807.896 197.362 808.826 197.655C809.11 197.733 809.756 197.909 810.246 198.045C813.526 198.884 813.526 198.904 813.681 199.938C814.017 202.123 814.353 205.089 814.482 206.728C814.56 207.684 814.74 209.362 814.895 210.435C815.05 211.508 815.231 213.225 815.309 214.239C815.36 215.254 815.541 216.483 815.696 216.971C815.825 217.459 815.928 218.063 815.928 218.337C815.928 219 816.342 223.37 816.677 226.336C817.194 230.589 817.788 237.048 817.995 240.579C818.098 242.452 818.33 245.301 818.485 246.92C818.64 248.52 818.821 251.252 818.873 252.969C818.95 254.685 819.183 258.627 819.389 261.748C820.087 272.616 820.345 278.684 820.113 278.859C819.906 279.016 816.058 278.86 810.505 278.43C803.015 277.884 789.662 277.357 783.902 277.396C778.478 277.435 775.921 277.63 770.808 278.45L767.941 278.899L767.063 278.411C765.771 277.669 764.015 276.947 762.853 276.674C761.484 276.343 760.735 275.816 759.934 274.567C759.314 273.553 759.263 273.533 758.978 273.943C758.746 274.255 758.617 274.313 758.462 274.138C758.359 274.001 758.307 269.845 758.359 264.89C758.488 253.807 758.488 236.053 758.384 224.19C758.359 221.088 759.986 216.737 762 214.571C762.284 214.278 762.724 213.556 763.008 212.952C764.041 210.766 765.59 209.166 766.727 209.166C767.088 209.166 767.76 209.42 768.225 209.752C768.716 210.064 769.18 210.279 769.258 210.22C769.335 210.142 769.361 209.557 769.284 208.893C769.155 207.664 769.465 205.186 769.929 203.742C770.084 203.294 770.317 202.591 770.446 202.182C770.756 201.108 771.376 199.957 773.055 197.343C774.501 195.119 774.63 194.982 775.56 194.787C776.102 194.65 777.187 194.416 777.962 194.241C778.737 194.065 780.674 193.792 782.223 193.636C783.799 193.46 785.116 193.285 785.194 193.226C785.271 193.168 785.788 193.187 786.356 193.246C786.924 193.324 788.138 193.46 789.068 193.577ZM723.879 196.27C724.008 196.367 724.705 196.504 725.403 196.562C727.779 196.738 730.206 197.07 735.346 197.85C736.973 198.084 741.08 198.689 743.74 199.06C745.29 199.274 745.548 199.391 745.626 199.762C745.677 200.055 745.574 200.191 745.264 200.191C744.799 200.191 742.991 199.84 742.191 199.606C741.648 199.43 740.718 199.274 739.35 199.099C738.936 199.04 738.342 198.923 738.058 198.826C737.774 198.728 737.206 198.611 736.767 198.533C735.32 198.318 733.926 198.065 732.763 197.85C729.767 197.265 723.104 196.972 719.979 197.265C718.971 197.362 718.946 197.343 718.868 196.718L718.791 196.094H721.193C722.536 196.094 723.724 196.172 723.879 196.27ZM759.366 199.489C759.366 199.528 759.185 199.606 758.978 199.684C758.772 199.743 758.591 199.704 758.591 199.606C758.591 199.489 758.772 199.411 758.978 199.411C759.185 199.411 759.366 199.45 759.366 199.489ZM727.701 199.977C728.14 200.074 729.483 200.289 730.697 200.465C733.254 200.816 735.449 201.206 741.157 202.318C744.102 202.903 745.419 203.255 745.755 203.547C746.142 203.898 746.194 204.562 746.194 211.098C746.194 217.634 746.349 228.463 746.943 258.432C747.046 264.441 747.227 274.177 747.304 280.089C747.408 285.981 747.511 293.239 747.563 296.185C747.64 299.131 747.769 306.37 747.847 312.282C747.95 318.174 748.105 325.471 748.157 328.476C748.363 338.134 748.389 341.216 748.234 341.334C748.105 341.431 745.806 341.138 740.77 340.377C736.896 339.792 736.121 339.675 734.416 339.499C729.897 339.012 725.351 338.739 721.735 338.719C719.591 338.719 717.758 338.641 717.68 338.563C717.603 338.465 717.654 327.734 717.783 314.701C718.016 290.586 718.067 281.63 718.119 262.041C718.119 255.973 718.145 250.452 718.171 249.749C718.197 249.047 718.222 243.642 718.222 237.75C718.274 210.981 718.352 201.225 718.455 200.718C718.584 200.25 718.713 200.191 719.669 200.172C720.263 200.152 721.038 200.074 721.399 199.996C722.303 199.782 726.771 199.762 727.701 199.977ZM712.876 218.532C712.902 230.921 712.515 249.554 712.256 249.554C712.101 249.535 710.81 249.418 709.389 249.242C707.969 249.086 705.231 248.793 703.32 248.579C701.409 248.364 699.084 248.091 698.154 247.993C697.225 247.876 695.313 247.701 693.893 247.583C692.472 247.466 690.432 247.291 689.373 247.193C686.196 246.881 677.492 246.764 674.961 247.018C673.721 247.135 671.733 247.33 670.519 247.408C669.305 247.505 668.091 247.642 667.781 247.701C666.567 247.974 663.184 244.267 662.538 241.945C662.357 241.359 662.151 240.657 662.073 240.384C661.97 239.974 661.892 240.072 661.582 240.93C661.169 242.081 660.782 242.725 660.472 242.725C660.11 242.725 659.671 239.604 659.671 236.95C659.697 235.389 659.878 233.36 660.214 231.78C660.498 230.336 660.833 228.541 660.963 227.799C661.092 227.038 661.273 225.946 661.376 225.361C661.479 224.775 661.686 224.229 661.815 224.151C661.97 224.092 662.616 224.522 663.287 225.146C664.888 226.57 667.213 227.936 669.512 228.814C672.353 229.887 674.341 230.219 677.931 230.238C683.149 230.238 687.384 229.146 692.963 226.336C695.107 225.243 700.427 221.536 702.313 219.8C704.405 217.868 707.736 214.161 709.028 212.308C709.596 211.488 710.397 210.376 710.836 209.849C711.249 209.303 711.791 208.386 712.024 207.801L712.489 206.728L712.67 210.727C712.773 212.932 712.876 216.444 712.876 218.532ZM661.221 223.331C661.221 223.468 660.937 223.839 660.575 224.131L659.929 224.678L660.188 224.131C660.317 223.819 660.446 223.292 660.446 222.961C660.472 222.375 660.472 222.356 660.833 222.707C661.04 222.922 661.221 223.195 661.221 223.331ZM688.34 249.905C689.27 250.003 691.362 250.198 692.989 250.315C694.616 250.452 696.321 250.627 696.734 250.725C697.173 250.803 698.852 250.998 700.479 251.115C702.106 251.232 703.733 251.408 704.095 251.505C704.456 251.583 705.954 251.759 707.452 251.895C708.95 252.012 710.371 252.208 710.603 252.305C710.862 252.403 711.301 252.481 711.585 252.481C712.024 252.481 712.101 252.617 712.101 253.456C712.101 253.983 711.998 254.432 711.843 254.432C711.481 254.432 709.234 254.022 708.615 253.846C708.33 253.749 707.22 253.573 706.161 253.437C705.102 253.3 704.121 253.144 703.966 253.066C703.707 252.929 702.829 252.793 700.479 252.559C699.833 252.5 699.084 252.383 698.8 252.286C698.18 252.09 696.837 251.915 694.539 251.778C693.609 251.72 692.627 251.603 692.343 251.505C690.974 251.056 681.547 250.9 678.784 251.291C678.009 251.388 676.149 251.583 674.651 251.7C673.153 251.837 671.707 252.012 671.423 252.09C671.139 252.188 670.338 252.305 669.615 252.364C668.918 252.403 667.678 252.539 666.903 252.656C666.128 252.773 664.553 252.988 663.416 253.144C662.28 253.3 660.859 253.515 660.239 253.612C659.645 253.71 659.103 253.749 659.051 253.671C659.026 253.612 659.026 253.144 659.103 252.656C659.206 251.798 659.232 251.759 660.343 251.544C660.963 251.408 661.763 251.31 662.073 251.31C662.409 251.31 662.771 251.232 662.925 251.134C663.055 251.037 663.804 250.92 664.578 250.861C665.353 250.803 667.678 250.588 669.744 250.354C671.81 250.139 674.083 249.944 674.78 249.944C675.504 249.944 676.253 249.847 676.459 249.749C676.924 249.515 685.938 249.632 688.34 249.905ZM650.709 251.622L652.698 251.759V252.52V253.3L651.226 253.183C646.344 252.812 639.758 252.676 637.072 252.89C635.522 253.008 634.128 253.183 633.973 253.261C633.844 253.339 633.301 253.456 632.81 253.515C630.383 253.788 629.711 253.905 629.711 254.042C629.711 254.12 629.272 254.237 628.756 254.295C628.213 254.354 627.361 254.49 626.87 254.588C626.379 254.705 625.295 254.92 624.494 255.076C623.022 255.349 622.996 255.349 622.996 254.939C622.996 254.393 623.461 254.042 624.184 254.042C624.52 254.042 624.83 253.964 624.907 253.866C624.985 253.768 625.424 253.651 625.889 253.593C626.354 253.534 627.206 253.398 627.774 253.261C630.848 252.598 635.264 251.895 636.426 251.895C636.969 251.895 637.511 251.798 637.589 251.7C637.769 251.486 647.558 251.427 650.709 251.622ZM689.502 254.022C693.273 254.393 695.236 254.607 696.605 254.822C697.38 254.959 698.852 255.173 699.833 255.31C702.545 255.72 707.297 256.5 709.906 257.007L712.23 257.456L712.385 258.627C712.463 259.271 712.437 268.226 712.308 278.528C712.153 288.83 712.127 299.756 712.205 302.819C712.36 308.184 711.895 347.909 711.688 348.065C711.636 348.123 710.862 348.065 709.958 347.928C709.079 347.811 706.161 347.616 703.449 347.499C700.763 347.382 697.948 347.206 697.199 347.089C695.365 346.816 676.201 346.562 672.714 346.777C671.165 346.855 669.641 346.933 669.382 346.933C669.098 346.933 668.323 346.504 667.626 345.997C666.567 345.197 666.257 344.748 665.457 343.011C664.346 340.573 663.313 337.509 663.287 336.612C663.287 336.222 663.184 336.007 663.029 336.085C662.9 336.144 662.771 336.573 662.771 337.022C662.771 337.763 662.745 337.802 662.409 337.451C661.996 336.983 661.634 335.695 661.247 333.451C661.092 332.534 660.833 331.168 660.704 330.388C660.549 329.627 660.446 328.183 660.446 327.227C660.446 326.252 660.369 325.452 660.265 325.452C660.136 325.452 659.103 326.954 657.941 328.788C656.753 330.661 655.694 332.066 655.565 331.988C655.41 331.929 655.1 331.578 654.867 331.207C654.428 330.505 654.454 328.086 654.996 319.013C655.126 316.925 655.358 312.828 655.539 309.94C655.694 307.033 656.055 300.887 656.339 296.283C656.624 291.659 656.959 284.947 657.088 281.357C657.398 273.318 657.373 273.416 658.225 272.089C659.026 270.88 659.465 270.743 659.8 271.621C660.11 272.323 660.549 272.401 660.653 271.758C660.782 270.919 661.479 268.928 662.125 267.504C663.003 265.553 664.604 263.602 665.353 263.602C665.715 263.602 666.825 265.475 667.213 266.763C667.368 267.27 667.6 267.641 667.704 267.563C667.807 267.465 668.039 266.314 668.194 264.968C668.737 260.383 670.622 255.661 672.198 254.92C672.482 254.783 674.703 254.529 677.105 254.334C679.533 254.159 681.909 253.944 682.4 253.846C683.381 253.671 686.609 253.749 689.502 254.022ZM649.676 255.876C651.2 256.012 652.569 256.207 652.724 256.324C652.904 256.461 652.956 256.968 652.853 257.671C652.775 258.314 652.517 262.412 652.284 266.821C652.078 271.211 651.794 276.401 651.69 278.333C651.561 280.264 651.355 284.654 651.174 288.088C650.864 294.917 650.502 300.907 650.089 306.624C649.934 308.653 649.65 313.882 649.418 318.233C649.03 326.095 648.72 331.227 648.359 335.695L648.178 338.036L647.532 337.997C647.171 337.978 645.853 337.861 644.562 337.743C640.895 337.392 637.769 337.197 635.238 337.178C632.965 337.158 632.862 337.139 631.493 336.417C630.408 335.851 629.918 335.402 629.298 334.466C628.42 333.139 628.291 332.632 627.826 329.081C627.49 326.505 627.206 326.369 626.638 328.476C625.682 331.871 625.243 332.885 624.959 332.28C624.597 331.422 624.287 329.139 624.262 327.091V324.769L623.771 325.744C623.512 326.271 623.022 327.403 622.712 328.222C621.963 330.095 621.653 330.427 621.007 330.134C619.948 329.607 619.509 328.905 619.535 327.695C619.561 326.33 620.026 318.213 620.413 312.184C620.568 309.882 620.826 304.731 620.956 300.77C621.343 290.449 621.653 283.893 621.885 281.728C622.066 280.167 622.195 279.757 622.764 279.191C623.28 278.645 623.487 278.06 623.874 275.991C624.391 273.299 624.907 271.953 626.173 270.275C626.999 269.143 627.929 268.558 628.549 268.753C628.962 268.87 630.228 270.801 630.228 271.309C630.228 271.465 630.331 271.601 630.46 271.601C630.589 271.601 630.744 270.606 630.822 269.397C630.977 267.192 631.39 264.031 631.622 263.309C631.7 263.095 631.932 262.353 632.139 261.651C633.12 258.549 634.283 256.89 635.781 256.519C636.452 256.344 636.814 256.129 636.788 255.915C636.736 255.642 637.253 255.602 641.824 255.622C644.614 255.622 648.152 255.739 649.676 255.876ZM792.813 280.381C795.37 280.479 799.554 280.615 802.111 280.674C804.668 280.733 806.992 280.869 807.276 280.967C807.56 281.064 808.619 281.181 809.601 281.22C810.608 281.279 813.423 281.415 815.877 281.572L820.319 281.825V283.152C820.319 284.44 820.293 284.479 819.673 284.479C819.312 284.479 819.028 284.401 819.028 284.303C819.028 284.127 818.253 284.03 814.895 283.796C813.966 283.737 812.984 283.601 812.7 283.503C812.132 283.308 811.021 283.171 808.18 282.918C807.121 282.84 805.597 282.664 804.823 282.528C803.325 282.293 798.237 281.825 794.362 281.552C790.901 281.318 784.057 281.298 781.707 281.532C780.57 281.65 778.53 281.825 777.187 281.942C775.844 282.04 774.449 282.215 774.088 282.332C773.726 282.43 772.512 282.625 771.376 282.742C770.239 282.879 769.206 283.054 769.077 283.152C768.922 283.23 768.561 283.308 768.225 283.308C767.915 283.308 766.985 283.445 766.159 283.62C765.332 283.796 764.144 284.01 763.498 284.108C762.853 284.186 761.69 284.401 760.916 284.557C759.133 284.947 758.694 284.947 758.488 284.576C758.384 284.362 758.565 284.205 759.056 284.088C759.443 283.971 759.96 283.796 760.192 283.698C760.451 283.581 760.89 283.503 761.148 283.503C761.432 283.503 761.742 283.406 761.82 283.308C761.897 283.191 762.207 283.113 762.491 283.113C762.749 283.113 763.188 283.035 763.447 282.937C763.679 282.84 765.1 282.508 766.598 282.235C768.096 281.942 769.542 281.63 769.826 281.552C770.11 281.454 771.092 281.279 772.021 281.162C772.951 281.045 773.933 280.85 774.217 280.772C774.501 280.674 775.431 280.537 776.283 280.479C782.921 279.991 783.644 279.991 792.813 280.381ZM795.395 284.459C796.687 284.576 798.779 284.771 800.044 284.869C801.336 284.986 803.066 285.142 803.919 285.259C804.771 285.357 806.295 285.532 807.276 285.63C808.283 285.747 809.73 285.903 810.505 286.02C811.279 286.118 813.087 286.332 814.508 286.508C815.928 286.664 817.556 286.898 818.124 287.015C818.692 287.113 819.518 287.23 819.932 287.249L820.707 287.308L821.017 293.844C821.611 306.585 822.669 332.417 822.773 336.475C822.824 338.719 822.979 342.368 823.134 344.572C823.264 346.777 823.393 350.991 823.393 353.938C823.418 356.884 823.522 359.615 823.651 359.986C823.78 360.357 823.935 362.952 823.987 365.742C824.064 370.717 824.064 370.815 823.548 370.756C823.263 370.717 822.23 370.6 821.223 370.522C820.242 370.424 818.666 370.249 817.736 370.132C816.807 370.015 815.179 369.839 814.121 369.741C813.062 369.644 811.434 369.468 810.505 369.351C809.575 369.254 807.328 369.02 805.468 368.883C803.634 368.727 801.31 368.493 800.303 368.376C794.104 367.654 783.541 367.42 777.368 367.888L773.261 368.2L772.383 367.693C771.324 367.068 769.077 365.371 768.199 364.513C767.398 363.732 767.088 363.966 767.269 365.234C767.553 367.186 766.443 366.932 765.074 364.766C764.635 364.083 764.273 363.42 764.273 363.283C764.273 363.147 764.17 362.776 764.015 362.444C763.886 362.113 763.705 361.586 763.627 361.274C763.318 360.142 762.646 361.566 762.284 364.142C762.052 365.8 761.148 364.864 760.115 361.918C759.34 359.635 759.108 358.093 758.849 353.938C758.72 351.947 758.514 348.611 758.359 346.523C758.023 341.451 758.178 304.731 758.539 303.794C758.694 303.424 758.927 302.799 759.056 302.409C759.418 301.336 761.51 298.117 762.31 297.395C762.698 297.063 763.24 296.771 763.498 296.771C764.041 296.771 765.048 297.727 765.074 298.273C765.074 298.468 765.306 298.975 765.565 299.405L766.055 300.185V298.37C766.081 295.561 767.217 291.893 768.87 289.142C769.465 288.166 771.221 286.488 772.331 285.844C773.106 285.396 775.431 284.947 778.478 284.654C779.537 284.557 781.113 284.381 781.965 284.303C783.954 284.088 792.374 284.186 795.395 284.459ZM641.721 340.26C641.85 340.358 642.728 340.495 643.658 340.553C647.868 340.865 648.1 340.885 647.945 341.197C647.868 341.353 647.79 341.568 647.79 341.685C647.79 341.88 646.783 341.841 641.075 341.451C639.267 341.334 635.651 341.275 632.81 341.334C627.722 341.412 626.147 341.529 625.191 341.841C624.907 341.938 624.21 342.055 623.642 342.114C622.454 342.212 620.491 342.524 619.845 342.719C619.458 342.836 619.38 342.738 619.38 342.173C619.38 341.626 619.509 341.47 619.974 341.392C620.284 341.334 621.007 341.177 621.575 341.06C622.144 340.943 623.538 340.709 624.675 340.553C625.811 340.397 627.257 340.182 627.903 340.085C629.272 339.87 641.334 340.026 641.721 340.26ZM726.177 341.646C730.516 341.958 733.667 342.231 734.959 342.426C735.682 342.524 737.542 342.797 739.091 343.011C740.667 343.246 742.449 343.499 743.094 343.597C743.74 343.694 744.825 343.85 745.496 343.909C746.168 343.987 746.788 344.124 746.865 344.202C746.943 344.299 747.201 344.377 747.485 344.377C748.002 344.377 748.26 344.748 748.26 345.548C748.26 346.075 748.234 346.094 747.175 345.997C746.555 345.938 745.961 345.821 745.806 345.743C745.677 345.665 744.438 345.489 743.094 345.353C741.751 345.216 740.538 345.041 740.383 344.963C740.253 344.885 739.479 344.748 738.704 344.67C736.973 344.494 734.881 344.26 732.712 343.967C731.808 343.87 729.922 343.733 728.502 343.675C727.081 343.616 725.687 343.499 725.403 343.402C725.118 343.304 724.008 343.187 722.949 343.109C721.89 343.05 720.34 342.953 719.54 342.894L718.042 342.777V342.114V341.451L720.96 341.47C722.536 341.47 724.912 341.568 726.177 341.646ZM643.606 344.397C643.942 344.494 644.614 344.572 645.13 344.572C645.647 344.572 646.499 344.67 647.067 344.806L648.1 345.041L647.945 347.284C647.636 351.694 647.3 357.645 646.887 365.839C646.654 370.405 646.37 375.926 646.241 378.131C646.112 380.336 645.828 385.818 645.595 390.325C644.82 405.72 644.769 406.91 644.614 407.398C644.51 407.671 644.304 411.222 644.149 415.299C643.994 419.377 643.787 423.416 643.71 424.274L643.529 425.835L636.039 425.972C630.408 426.089 628.394 426.069 627.955 425.894C627.154 425.582 626.638 424.801 626.25 423.338L625.94 422.167L625.191 423.065C623.822 424.704 622.376 424.723 620.336 423.123C618.709 421.836 616.462 418.382 615.997 416.49C615.558 414.558 615.868 407.183 616.41 406.949C616.875 406.754 616.926 405.778 616.513 405.29C616.281 405.017 616.281 402.578 616.539 395.671C616.875 385.467 616.901 385.116 617.443 375.887C617.65 372.336 617.83 368.493 617.83 367.322C617.83 365.351 617.882 365.117 618.476 364.473C619.096 363.81 619.354 363.108 619.897 360.766C620.026 360.181 620.258 359.381 620.387 359.01C621.214 356.689 621.524 355.908 621.937 354.933C622.557 353.508 623.022 352.767 623.306 352.767C623.409 352.767 623.512 353.333 623.512 354.035C623.512 354.757 623.616 355.303 623.771 355.303C623.926 355.303 624.029 355.03 624.029 354.699C624.029 353.391 626.612 348.475 628.316 346.523C629.272 345.431 629.35 345.236 628.885 345.119C628.446 345.002 628.833 344.397 629.505 344.182C630.228 343.948 642.702 344.143 643.606 344.397ZM722.432 345.938C723.491 346.036 725.583 346.192 727.081 346.289C730.284 346.523 731.963 346.68 733.538 346.914C734.184 347.011 736.147 347.284 737.929 347.518C739.711 347.753 741.984 348.065 742.965 348.221C743.973 348.377 745.522 348.592 746.452 348.709C747.382 348.826 748.208 349.021 748.338 349.138C748.441 349.255 748.544 350.66 748.57 352.279C748.57 353.879 748.647 357.625 748.725 360.571C748.802 363.517 748.906 368.434 748.932 371.497C749.009 378.541 749.474 406.461 749.81 424.274C749.965 431.786 750.068 440.625 750.068 443.902V449.873L750.714 450.79L751.359 451.707L748.079 451.609C743.043 451.453 727.03 451.161 721.709 451.122L717.009 451.102L717.164 419.436C717.241 402.032 717.344 378.385 717.37 366.912C717.396 355.42 717.525 345.919 717.628 345.762C717.783 345.567 718.197 345.528 719.178 345.645C719.901 345.704 721.373 345.841 722.432 345.938ZM696.14 349.801C696.321 349.899 697.819 350.055 699.446 350.133C711.585 350.66 711.817 350.679 711.843 351.772C711.843 352.201 711.766 352.221 710.629 352.104C709.932 352.045 707.427 351.908 704.999 351.791C702.597 351.694 699.859 351.518 698.929 351.421C696.682 351.167 685.525 350.796 680.85 350.835C677.311 350.855 675.426 350.952 669.873 351.382C668.608 351.479 666.541 351.616 665.302 351.713C664.036 351.791 663.029 351.908 663.029 351.986C663.029 352.065 661.841 352.182 660.394 352.26C658.922 352.318 657.398 352.416 656.959 352.455C656.546 352.513 655.642 352.611 654.971 352.689L653.731 352.825V352.201C653.731 351.499 654.402 351.206 656.03 351.206C656.546 351.206 657.088 351.128 657.243 351.03C657.373 350.933 658.225 350.816 659.155 350.757C660.084 350.718 662.047 350.523 663.545 350.367C665.043 350.191 667.394 349.996 668.788 349.918C670.183 349.84 671.371 349.704 671.474 349.587C671.681 349.313 695.701 349.528 696.14 349.801ZM696.217 354.133C698.206 354.25 701.822 354.425 704.224 354.542C706.652 354.64 709.415 354.777 710.397 354.835L712.179 354.952L711.998 363.361C711.921 368.005 711.714 384.784 711.585 400.666C711.456 416.548 711.275 432.098 711.197 435.24C711.068 439.474 711.094 441.112 711.326 441.6C711.559 442.068 711.611 443.337 711.456 446.517L711.275 450.77L700.376 450.653C694.409 450.575 684.982 450.458 679.429 450.4L669.357 450.263L667.6 448.878C666.619 448.117 665.121 446.771 664.243 445.893C662.796 444.429 662.564 444.273 661.789 444.273C660.214 444.273 657.347 442.303 656.004 440.273C654.635 438.244 653.498 434.323 653.447 431.513C653.421 430.635 653.343 430.108 653.292 430.323C653.214 430.537 653.059 430.791 652.956 430.908C652.827 431.006 652.543 431.767 652.31 432.567C652.078 433.367 651.665 434.654 651.381 435.435C651.122 436.196 650.89 436.937 650.89 437.074C650.89 437.639 649.547 440.566 649.185 440.781C648.694 441.093 648.23 440.664 648.436 440.078C648.565 439.688 648.849 434.576 649.34 424.567C649.495 421.504 649.728 417.29 649.883 415.202C650.012 413.114 650.322 407.788 650.554 403.398C650.761 398.988 651.045 393.818 651.148 391.886C651.277 389.955 651.484 385.799 651.639 382.638C651.897 377.273 651.975 376.804 652.594 375.419C653.576 373.253 655.539 370.249 655.823 370.463C656.133 370.697 656.83 372.727 656.83 373.37C656.83 374.092 657.373 375.595 657.631 375.595C657.76 375.595 657.863 375.283 657.863 374.892C657.863 374.522 657.967 373.839 658.096 373.39C658.225 372.941 658.457 372.063 658.612 371.439C659.232 368.961 659.516 368.005 660.136 366.229C660.472 365.215 660.859 364.122 660.937 363.81C661.092 363.322 661.298 363.186 662.306 362.991C663.752 362.717 666.98 361.488 668.582 360.61C669.899 359.908 670.261 359.362 670.261 358.21C670.261 357.703 670.39 357.391 670.648 357.332C670.855 357.254 671.035 357.098 671.035 356.962C671.035 356.806 671.655 356.474 672.404 356.22C673.618 355.772 678.784 354.503 680.333 354.25C680.695 354.211 681.392 354.074 681.883 353.957C682.942 353.723 690.974 353.821 696.217 354.133ZM793.2 370.639C796.248 370.815 798.986 371.029 799.27 371.107C799.554 371.205 800.768 371.341 801.982 371.4C804.59 371.575 807.173 371.79 809.472 372.083C810.401 372.2 812.028 372.336 813.087 372.395C814.146 372.453 815.257 372.571 815.541 372.668C816.058 372.824 816.858 372.922 820.448 373.253C821.456 373.351 822.644 373.488 823.109 373.546L823.935 373.683V375.419V377.156H823.238C822.824 377.136 821.301 376.999 819.803 376.843C818.305 376.687 816.213 376.473 815.154 376.375C810.143 375.907 808.697 375.751 807.018 375.575C806.036 375.478 803.867 375.341 802.24 375.283C800.613 375.224 799.037 375.107 798.753 375.009C797.565 374.6 784.6 374.307 781.061 374.619C776.412 375.029 774.992 375.165 773.442 375.361C772.59 375.478 770.911 375.712 769.697 375.868C768.483 376.024 766.391 376.336 765.048 376.57C761.303 377.214 760.347 377.37 759.443 377.487L758.591 377.585V375.868C758.591 374.912 758.514 373.956 758.436 373.722C758.281 373.273 758.849 373.097 761.82 372.668C762.672 372.531 763.602 372.356 763.886 372.258C764.17 372.18 764.919 372.063 765.565 372.005C766.21 371.966 767.011 371.868 767.372 371.829C767.734 371.771 769.413 371.575 771.117 371.4C772.822 371.224 774.578 371.01 775.017 370.893C775.457 370.795 776.67 370.717 777.729 370.697C778.788 370.697 779.873 370.619 780.157 370.522C781.009 370.249 787.286 370.307 793.2 370.639ZM795.525 377.526C796.868 377.624 799.27 377.799 800.819 377.917C804.874 378.209 811.228 378.794 817.736 379.497C823.315 380.082 824.038 380.18 824.4 380.355C824.632 380.453 824.71 381.194 824.684 383.067C824.632 387.945 825.226 404.959 825.459 405.388C825.614 405.622 825.717 408.276 825.743 411.339C825.743 414.382 825.872 418.87 826.027 421.348C826.182 423.806 826.311 426.187 826.311 426.616C826.337 429.035 827.06 449.892 827.138 451.18L827.241 452.702L815.205 452.585C801.749 452.448 794.156 452.312 793.252 452.156C792.761 452.078 792.709 452 792.942 451.785C793.278 451.492 792.477 451.043 789.972 450.126C787.57 449.248 782.869 446.751 781.087 445.424C780.106 444.683 778.685 443.473 777.936 442.712C777.187 441.951 776.49 441.405 776.361 441.503C776.18 441.639 776.361 442.459 777.342 445.737C777.549 446.478 777.807 447.492 777.859 447.98L777.988 448.858L777.316 448.273C776.541 447.59 774.346 444.254 773.752 442.81C772.796 440.605 772.331 439.22 772.021 437.932C771.634 436.118 771.557 435.962 771.221 436.215C770.963 436.41 770.73 437.327 770.214 440.273C769.774 442.615 769.568 442.79 768.819 441.483C767.502 439.239 766.649 436.566 766.417 433.932C766.262 432.196 766.133 431.962 765.694 432.567C765.487 432.84 765.332 433.191 765.306 433.347C765.306 433.659 764.428 435.883 763.808 437.191C763.602 437.659 763.266 438.03 763.085 438.03C762.62 438.03 760.037 434.01 759.469 432.469C759.263 431.825 758.953 430.986 758.798 430.616C758.669 430.245 758.436 429.367 758.307 428.664C758.178 427.962 758.023 427.299 757.971 427.182C757.92 427.065 757.945 425.035 758.075 422.694C758.178 420.353 758.152 413.329 758.023 407.105L757.765 395.808L758.333 394.715C759.366 392.706 762.026 388.862 762.904 388.082C763.395 387.652 764.015 387.301 764.273 387.301C764.635 387.301 764.79 387.106 764.919 386.462C765.022 386.014 765.41 384.999 765.771 384.199C766.314 383.028 766.701 382.541 767.992 381.565C768.87 380.882 769.826 380.121 770.136 379.829C770.498 379.477 770.937 379.302 771.453 379.302C772.331 379.302 772.615 379.126 772.28 378.814C771.892 378.463 772.977 378.209 775.766 377.936C777.807 377.76 779.925 377.526 782.094 377.273C783.205 377.136 792.968 377.331 795.525 377.526ZM642.315 428.606C643.606 428.723 643.684 428.742 643.606 429.23L643.529 429.738L634.231 429.874C629.117 429.952 622.686 429.972 619.948 429.913L614.964 429.796L615.041 429.269L615.119 428.762L624.236 428.723C629.272 428.723 633.43 428.645 633.508 428.586C633.714 428.43 640.585 428.45 642.315 428.606ZM642.987 432.547C643.09 432.645 643.012 436.001 642.832 440.02C642.677 444.02 642.522 447.844 642.522 448.527L642.496 449.756L636.426 449.658C624.313 449.483 614.266 449.248 614.163 449.151C613.982 448.975 614.628 434.44 614.886 433.21L615.015 432.567L622.557 432.508C626.715 432.489 632.965 432.45 636.478 432.411C640.12 432.391 642.909 432.45 642.987 432.547ZM595.102 453.248C602.566 453.365 608.946 453.521 609.307 453.619C609.669 453.716 615.583 453.853 622.479 453.912C638.957 454.068 660.627 454.36 672.198 454.594C677.311 454.712 684.466 454.79 688.082 454.809C691.723 454.809 694.797 454.887 694.926 454.985C695.081 455.082 703.681 455.258 714.038 455.394C724.421 455.511 737.826 455.707 743.869 455.824C749.913 455.921 760.606 456.097 767.631 456.175C774.656 456.253 781.991 456.409 783.902 456.526C785.813 456.624 797.281 456.78 809.342 456.858C821.43 456.916 833.285 457.072 835.687 457.17C838.114 457.267 844.468 457.404 849.84 457.463L859.577 457.599L863.632 458.809C865.853 459.492 867.739 460.136 867.79 460.253C867.868 460.409 864.588 460.487 855.135 460.506C840.671 460.545 814.25 460.565 800.819 460.526C795.86 460.506 774.398 460.545 753.167 460.604C731.937 460.662 697.354 460.721 676.33 460.76C655.306 460.799 621.937 460.877 602.179 460.955C577.823 461.053 566.175 461.033 566.072 460.897C565.994 460.779 566.33 460.584 566.872 460.467C567.415 460.331 568.835 459.882 569.998 459.453C572.658 458.477 575.292 456.585 577.152 454.341L578.417 452.819L579.967 452.936C580.845 452.995 587.638 453.131 595.102 453.248ZM890.286 465.325C891.371 465.852 893.773 467.023 895.633 467.94C897.518 468.857 899.3 469.715 899.636 469.852C899.972 469.969 900.307 470.145 900.385 470.223C900.462 470.301 901.16 470.593 901.96 470.886C902.761 471.179 905.189 472.33 907.384 473.462C909.579 474.574 912.679 476.174 914.28 476.993C915.856 477.812 917.173 478.554 917.173 478.651C917.173 478.749 916.63 478.769 915.959 478.729C914.693 478.632 892.352 478.476 854.153 478.32C842.298 478.261 826.259 478.125 818.511 478.027C802.885 477.812 621.782 476.427 563.334 476.056C542.801 475.939 525.135 475.783 524.076 475.705L522.139 475.569L528.338 472.466C531.747 470.769 536.396 468.467 538.669 467.335L542.775 465.306L560.106 465.443C569.61 465.521 577.875 465.579 578.443 465.56C579.011 465.521 596.755 465.482 617.856 465.462C638.957 465.423 656.339 465.365 656.469 465.306C656.598 465.247 673.902 465.189 694.926 465.169C729.277 465.15 787.311 465.013 822.385 464.857C845.346 464.76 848.523 464.76 867.584 464.857C883.597 464.955 886.412 464.935 887.084 464.682C887.523 464.526 887.962 464.389 888.091 464.389C888.246 464.369 889.227 464.799 890.286 465.325Z" fill="#4A748B"/>
<path d="M541.5 479H-2.5" stroke="#4A748B" stroke-width="2"/>
<path d="M899 482H1440" stroke="#4A748B" stroke-width="2"/>
</g>
<defs>
<clipPath id="clip0_106_1048">
<rect width="1440" height="515" fill="white"/>
</clipPath>
</defs>
</svg>
